<?xml version="1.0" encoding="UTF-8"?>
<svg version="1.1" xmlns="http://www.w3.org/2000/svg" width="32" height="29">
<path d="M0 0 C2.93804996 -0.08086376 5.87388075 -0.1404283 8.8125 -0.1875 C9.64587891 -0.21263672 10.47925781 -0.23777344 11.33789062 -0.26367188 C12.54155273 -0.27817383 12.54155273 -0.27817383 13.76953125 -0.29296875 C14.87711792 -0.31653442 14.87711792 -0.31653442 16.00708008 -0.34057617 C18.58085672 0.09926438 19.46076932 0.92062435 21 3 C21 3.99 21 4.98 21 6 C22.65 6 24.3 6 26 6 C26 11.28 26 16.56 26 22 C24.35 22 22.7 22 21 22 C21 24.31 21 26.62 21 29 C14.07 29 7.14 29 0 29 C0 26.69 0 24.38 0 22 C-1.98 22 -3.96 22 -6 22 C-6 16.72 -6 11.44 -6 6 C-4.02 6 -2.04 6 0 6 C0 4.02 0 2.04 0 0 Z M6 5 C6 5.33 6 5.66 6 6 C8.97 6 11.94 6 15 6 C15 5.67 15 5.34 15 5 C12.03 5 9.06 5 6 5 Z M-1 12 C-1 13.65 -1 15.3 -1 17 C-0.67 17 -0.34 17 0 17 C0 15.35 0 13.7 0 12 C-0.33 12 -0.66 12 -1 12 Z M6 22 C6 22.66 6 23.32 6 24 C8.97 24 11.94 24 15 24 C15 23.34 15 22.68 15 22 C12.03 22 9.06 22 6 22 Z " fill="#32F7F7" transform="translate(6,0)"/>
<path d="M0 0 C3.3 0.33 6.6 0.66 10 1 C10 2.65 10 4.3 10 6 C8.35 6 6.7 6 5 6 C5.33 8.31 5.66 10.62 6 13 C8.97 13 11.94 13 15 13 C15 12.34 15 11.68 15 11 C16.98 11 18.96 11 21 11 C21 13.31 21 15.62 21 18 C14.07 18 7.14 18 0 18 C0 12.06 0 6.12 0 0 Z " fill="#000202" transform="translate(6,11)"/>
<path d="M0 0 C2.93804996 -0.08086376 5.87388075 -0.1404283 8.8125 -0.1875 C9.64587891 -0.21263672 10.47925781 -0.23777344 11.33789062 -0.26367188 C12.54155273 -0.27817383 12.54155273 -0.27817383 13.76953125 -0.29296875 C14.87711792 -0.31653442 14.87711792 -0.31653442 16.00708008 -0.34057617 C18.59061657 0.10093227 19.45269709 0.91282816 21 3 C21.29296875 6.35546875 21.29296875 6.35546875 21.1875 10.1875 C21.16042969 11.45980469 21.13335938 12.73210938 21.10546875 14.04296875 C21.07066406 15.01878906 21.03585938 15.99460937 21 17 C19.35 17 17.7 17 16 17 C15.67 13.37 15.34 9.74 15 6 C10.11113324 5.92703184 5.78414483 5.95346832 1 7 C0 6 0 6 -0.0625 2.9375 C-0.041875 1.968125 -0.02125 0.99875 0 0 Z " fill="#000303" transform="translate(6,0)"/>
</svg>
